<svg xmlns="http://www.w3.org/2000/svg" viewBox="0 0 32 32"><rect width="32" height="32" rx="6" fill="#f5f3f0"/><path d="M14.16 25.28L9.93 25.28Q9.67 25.28 9.57 25.18Q9.47 25.07 9.47 24.97L9.47 24.97Q9.47 24.71 9.85 24.64L9.85 24.64L10.26 24.56Q11.09 24.40 11.57 24.06Q12.04 23.71 12.38 22.93L12.38 22.93L14.96 16.80Q15.08 16.52 15.12 16.22Q15.16 15.92 15.01 15.59L15.01 15.59L11.79 8.45Q11.53 7.85 11.23 7.65Q10.93 7.44 10.60 7.39L10.60 7.39L10.11 7.31Q9.70 7.24 9.70 6.98L9.70 6.98Q9.70 6.72 10.14 6.72L10.14 6.72L14.67 6.72Q15.14 6.72 15.14 6.98L15.14 6.98Q15.14 7.24 14.70 7.31L14.70 7.31L14.21 7.39Q13.77 7.47 13.60 7.70Q13.44 7.93 13.67 8.45L13.67 8.45L16.12 13.94Q16.22 14.17 16.36 14.17Q16.50 14.17 16.61 13.94L16.61 13.94L18.82 8.70Q19.05 8.14 18.98 7.87Q18.90 7.60 18.46 7.49L18.46 7.49L17.74 7.34Q17.30 7.24 17.30 6.98L17.30 6.98Q17.30 6.72 17.77 6.72L17.77 6.72L21.71 6.72Q21.99 6.72 22.08 6.81Q22.17 6.90 22.17 7.03L22.17 7.03Q22.17 7.29 21.79 7.36L21.79 7.36L21.37 7.44Q20.73 7.54 20.29 7.92Q19.85 8.29 19.52 9.07L19.52 9.07L17.07 14.79Q16.94 15.12 16.93 15.43Q16.92 15.74 17.10 16.10L17.10 16.10L20.42 23.55Q20.70 24.17 21.00 24.35Q21.30 24.53 21.61 24.58L21.61 24.58L22.10 24.66Q22.53 24.74 22.53 25.02L22.53 25.02Q22.53 25.28 22.07 25.28L22.07 25.28L17.51 25.28Q17.04 25.28 17.04 24.97L17.04 24.97Q17.04 24.74 17.46 24.66L17.46 24.66L17.97 24.58Q18.41 24.53 18.59 24.29Q18.77 24.04 18.56 23.55L18.56 23.55L15.91 17.65Q15.81 17.42 15.66 17.42Q15.52 17.42 15.42 17.65L15.42 17.65L13.10 23.30Q12.87 23.86 12.95 24.13Q13.02 24.40 13.46 24.51L13.46 24.51L14.18 24.66Q14.62 24.76 14.62 25.02L14.62 25.02Q14.62 25.28 14.16 25.28L14.16 25.28Z" fill="#4c2626"/></svg>
