<svg xmlns="http://www.w3.org/2000/svg" viewBox="0 0 57 27"><path d="M3.50 0L-0.50 0Q-0.72 0-0.79-0.08Q-0.86-0.17-0.86-0.26L-0.86-0.26Q-0.86-0.53-0.43-0.60L-0.43-0.60L-0.05-0.67Q0.77-0.82 1.30-1.14Q1.82-1.46 2.28-2.18L2.28-2.18L6-7.90Q6.19-8.18 6.29-8.46Q6.38-8.74 6.29-9.19L6.29-9.19L4.90-15.67Q4.80-16.22 4.56-16.42Q4.32-16.61 4.01-16.66L4.01-16.66L3.58-16.73Q3.19-16.80 3.26-17.04L3.26-17.04Q3.31-17.28 3.72-17.28L3.72-17.28L7.87-17.28Q8.30-17.28 8.26-17.04L8.26-17.04Q8.18-16.80 7.78-16.73L7.78-16.73L7.30-16.66Q6.86-16.58 6.67-16.37Q6.48-16.15 6.58-15.67L6.58-15.67L7.73-10.44Q7.75-10.34 7.84-10.32Q7.92-10.30 8.02-10.42L8.02-10.42L11.30-15.43Q11.64-15.96 11.65-16.21Q11.66-16.46 11.23-16.56L11.23-16.56L10.61-16.70Q10.20-16.80 10.27-17.04L10.27-17.04Q10.32-17.28 10.75-17.28L10.75-17.28L14.47-17.28Q14.93-17.28 14.83-16.99L14.83-16.99Q14.78-16.75 14.40-16.68L14.40-16.68L14.02-16.61Q13.39-16.49 12.90-16.15Q12.41-15.82 11.93-15.10L11.93-15.10L8.42-9.77Q8.21-9.46 8.14-9.13Q8.06-8.81 8.18-8.26L8.18-8.26L9.62-1.61Q9.74-1.03 10.00-0.86Q10.25-0.70 10.51-0.65L10.51-0.65L10.97-0.58Q11.28-0.55 11.28-0.29L11.28-0.29Q11.28 0 10.80 0L10.80 0L6.60 0Q6.24 0 6.24-0.26L6.24-0.26Q6.24-0.50 6.70-0.58L6.70-0.58L7.18-0.65Q7.61-0.72 7.82-0.94Q8.04-1.15 7.94-1.61L7.94-1.61L6.72-7.22Q6.70-7.37 6.60-7.38Q6.50-7.39 6.41-7.27L6.41-7.27L2.93-1.85Q2.59-1.32 2.58-1.07Q2.57-0.82 3-0.72L3-0.72L3.65-0.58Q3.96-0.50 3.96-0.29L3.96-0.29Q3.96 0 3.50 0L3.50 0ZM19.46 4.92L15.14 4.92Q14.83 4.92 14.83 4.66L14.83 4.66Q14.83 4.42 15.22 4.37L15.22 4.37L15.82 4.32Q16.30 4.27 16.51 4.06Q16.73 3.84 16.85 3.31L16.85 3.31L18.55-4.03Q18.60-4.20 18.49-4.22Q18.38-4.25 18.31-4.10L18.31-4.10Q17.50-2.45 16.76-1.51Q16.03-0.58 15.37-0.18Q14.71 0.22 14.09 0.22L14.09 0.22Q13.20 0.22 12.72-0.53Q12.24-1.27 12.24-2.71L12.24-2.71Q12.24-4.08 12.62-5.46Q13.01-6.84 13.68-8.09Q14.35-9.34 15.20-10.30Q16.06-11.26 17.00-11.82Q17.95-12.38 18.89-12.38L18.89-12.38Q19.34-12.38 19.75-12.20Q20.16-12.02 20.42-11.64L20.42-11.64Q20.57-11.42 20.71-11.42L20.71-11.42Q20.86-11.42 21-11.64L21-11.64Q21.26-12.02 21.43-12.13Q21.60-12.24 21.74-12.24L21.74-12.24Q22.06-12.24 21.98-11.90L21.98-11.90L18.46 3.31Q18.34 3.84 18.47 4.02Q18.60 4.20 19.03 4.27L19.03 4.27L19.44 4.34Q19.87 4.42 19.87 4.63L19.87 4.63Q19.87 4.92 19.46 4.92L19.46 4.92ZM14.66-1.01L14.66-1.01Q15.24-1.01 15.94-1.70Q16.63-2.40 17.32-3.50Q18-4.61 18.58-5.88Q19.15-7.15 19.50-8.33Q19.85-9.50 19.85-10.32L19.85-10.32Q19.85-11.78 18.82-11.78L18.82-11.78Q18.19-11.78 17.50-11.22Q16.80-10.66 16.16-9.70Q15.53-8.74 15.01-7.52Q14.50-6.31 14.18-5.00Q13.87-3.70 13.87-2.45L13.87-2.45Q13.87-1.61 14.10-1.31Q14.33-1.01 14.66-1.01ZM24.89 0.22L24.89 0.22Q24 0.22 23.68-0.59Q23.35-1.39 23.71-2.71L23.71-2.71L25.61-9.67Q25.80-10.37 25.70-10.75Q25.61-11.14 25.27-11.14L25.27-11.14Q24.72-11.14 24.16-10.30Q23.59-9.46 23.18-7.97L23.18-7.97Q23.11-7.70 22.87-7.70L22.87-7.70Q22.54-7.70 22.66-8.18L22.66-8.18Q23.21-10.20 24.11-11.29Q25.01-12.38 26.09-12.38L26.09-12.38Q26.95-12.38 27.24-11.59Q27.53-10.80 27.14-9.43L27.14-9.43L25.22-2.47Q24.77-0.82 25.54-0.82L25.54-0.82Q26.02-0.82 26.64-1.46Q27.26-2.11 27.95-3.24Q28.63-4.37 29.30-5.81Q29.98-7.25 30.53-8.83Q31.08-10.42 31.44-11.98L31.44-11.98Q31.51-12.24 31.78-12.24L31.78-12.24L32.74-12.24Q33.07-12.24 33-11.93L33-11.93L30.74-2.28Q30.48-1.15 31.15-1.15L31.15-1.15Q32.16-1.15 33.26-4.20L33.26-4.20Q33.36-4.51 33.60-4.51L33.60-4.51Q33.74-4.51 33.80-4.39Q33.86-4.27 33.79-4.08L33.79-4.08Q33.14-2.04 32.26-0.91Q31.37 0.22 30.38 0.22L30.38 0.22Q28.66 0.22 29.23-2.30L29.23-2.30L29.86-4.97Q29.90-5.14 29.80-5.16Q29.69-5.18 29.62-5.04L29.62-5.04Q28.22-2.16 27.05-0.97Q25.87 0.22 24.89 0.22ZM39.22-14.52L39.22-14.52Q38.76-14.52 38.46-14.84Q38.16-15.17 38.16-15.62L38.16-15.62Q38.16-16.27 38.56-16.66Q38.95-17.04 39.46-17.04L39.46-17.04Q39.94-17.04 40.26-16.74Q40.58-16.44 40.58-15.96L40.58-15.96Q40.58-15.29 40.18-14.90Q39.77-14.52 39.22-14.52ZM37.25 0.24L37.25 0.24Q36.46 0.24 36.12-0.35Q35.78-0.94 36.10-2.28L36.10-2.28L37.87-9.89Q37.99-10.42 37.91-10.72Q37.82-11.02 37.46-11.02L37.46-11.02Q37.03-11.02 36.52-10.38Q36-9.74 35.35-7.97L35.35-7.97Q35.26-7.66 35.02-7.66L35.02-7.66Q34.66-7.66 34.82-8.09L34.82-8.09Q35.35-9.74 35.94-10.68Q36.53-11.62 37.13-12Q37.73-12.38 38.23-12.38L38.23-12.38Q39.07-12.38 39.41-11.80Q39.74-11.21 39.43-9.86L39.43-9.86L37.66-2.26Q37.54-1.73 37.62-1.43Q37.70-1.13 38.06-1.13L38.06-1.13Q38.50-1.13 39.01-1.76Q39.53-2.40 40.18-4.18L40.18-4.18Q40.27-4.49 40.51-4.49L40.51-4.49Q40.87-4.49 40.70-4.06L40.70-4.06Q40.20-2.42 39.59-1.48Q38.98-0.53 38.38-0.14Q37.78 0.24 37.25 0.24ZM48.86 0.22L48.86 0.22Q47.64 0.22 46.87-1.78L46.87-1.78L45.55-5.26Q45.31-5.83 44.95-5.83L44.95-5.83Q44.59-5.83 44.33-5.23L44.33-5.23Q44.09-4.70 43.81-3.80Q43.54-2.90 43.30-1.85L43.30-1.85L42.94-0.26Q42.86 0 42.60 0L42.60 0L41.66 0Q41.33 0 41.40-0.31L41.40-0.31L44.90-15.36Q45-15.77 44.90-15.95Q44.81-16.13 44.47-16.15L44.47-16.15L43.75-16.22Q43.39-16.27 43.44-16.54L43.44-16.54Q43.49-16.75 43.78-16.80L43.78-16.80Q44.81-16.97 45.43-17.18Q46.06-17.40 46.39-17.69L46.39-17.69Q46.58-17.83 46.73-17.83L46.73-17.83Q47.04-17.83 46.97-17.47L46.97-17.47L44.74-7.97Q44.71-7.80 44.81-7.78Q44.90-7.75 44.98-7.90L44.98-7.90L45.77-9.31Q47.50-12.38 49.66-12.38L49.66-12.38Q50.47-12.38 50.95-11.95Q51.43-11.52 51.43-10.78L51.43-10.78Q51.43-9.60 50.29-8.42Q49.15-7.25 47.30-6.50L47.30-6.50Q46.73-6.29 46.97-5.74L46.97-5.74L48.36-2.18Q48.60-1.58 48.84-1.33Q49.08-1.08 49.44-1.08L49.44-1.08Q49.99-1.08 50.28-1.76Q50.57-2.45 50.78-4.15L50.78-4.15Q50.83-4.46 51.07-4.46L51.07-4.46Q51.34-4.46 51.31-3.98L51.31-3.98Q51.19-1.97 50.56-0.88Q49.92 0.22 48.86 0.22ZM45.19-6.91L45.19-6.91Q45.10-6.70 45.18-6.59Q45.26-6.48 45.48-6.53L45.48-6.53Q47.47-7.03 48.70-8.18Q49.92-9.34 49.92-10.73L49.92-10.73Q49.92-11.64 49.22-11.64L49.22-11.64Q48.41-11.64 47.33-10.38Q46.25-9.12 45.19-6.91Z" fill="#f5f3f0" transform="translate(2.9,19.8)"/></svg>