<svg xmlns="http://www.w3.org/2000/svg" viewBox="0 0 64 29"><path d="M4.09 0L-0.59 0Q-0.84 0-0.92-0.10Q-1.01-0.20-1.01-0.31L-1.01-0.31Q-1.01-0.62-0.50-0.70L-0.50-0.70L-0.06-0.78Q0.90-0.95 1.51-1.33Q2.13-1.71 2.66-2.55L2.66-2.55L7-9.21Q7.22-9.55 7.34-9.87Q7.45-10.19 7.34-10.72L7.34-10.72L5.71-18.28Q5.60-18.93 5.32-19.15Q5.04-19.38 4.68-19.43L4.68-19.43L4.17-19.52Q3.72-19.60 3.81-19.88L3.81-19.88Q3.86-20.16 4.34-20.16L4.34-20.16L9.18-20.16Q9.69-20.16 9.63-19.88L9.63-19.88Q9.55-19.60 9.07-19.52L9.07-19.52L8.51-19.43Q8.01-19.35 7.78-19.10Q7.56-18.84 7.67-18.28L7.67-18.28L9.02-12.18Q9.04-12.07 9.14-12.04Q9.24-12.01 9.35-12.15L9.35-12.15L13.19-18.00Q13.58-18.62 13.59-18.91Q13.61-19.21 13.10-19.32L13.10-19.32L12.38-19.49Q11.90-19.60 11.98-19.88L11.98-19.88Q12.04-20.16 12.54-20.16L12.54-20.16L16.88-20.16Q17.42-20.16 17.30-19.82L17.30-19.82Q17.25-19.54 16.80-19.46L16.80-19.46L16.35-19.38Q15.62-19.24 15.05-18.84Q14.48-18.45 13.92-17.61L13.92-17.61L9.83-11.40Q9.58-11.03 9.49-10.65Q9.41-10.28 9.55-9.63L9.55-9.63L11.23-1.88Q11.37-1.20 11.66-1.01Q11.96-0.81 12.26-0.76L12.26-0.76L12.80-0.67Q13.16-0.64 13.16-0.34L13.16-0.34Q13.16 0 12.60 0L12.60 0L7.70 0Q7.28 0 7.28-0.31L7.28-0.31Q7.28-0.59 7.81-0.67L7.81-0.67L8.37-0.76Q8.88-0.84 9.13-1.09Q9.38-1.34 9.27-1.88L9.27-1.88L7.84-8.43Q7.81-8.60 7.70-8.61Q7.59-8.62 7.48-8.48L7.48-8.48L3.42-2.16Q3.02-1.54 3.01-1.25Q3.00-0.95 3.50-0.84L3.50-0.84L4.26-0.67Q4.62-0.59 4.62-0.34L4.62-0.34Q4.62 0 4.09 0L4.09 0ZM22.71 5.74L17.67 5.74Q17.30 5.74 17.30 5.43L17.30 5.43Q17.30 5.15 17.75 5.10L17.75 5.10L18.45 5.04Q19.01 4.98 19.26 4.73Q19.52 4.48 19.66 3.86L19.66 3.86L21.64-4.70Q21.70-4.90 21.57-4.93Q21.45-4.96 21.36-4.79L21.36-4.79Q20.41-2.86 19.56-1.76Q18.70-0.67 17.93-0.21Q17.16 0.25 16.44 0.25L16.44 0.25Q15.40 0.25 14.84-0.62Q14.28-1.48 14.28-3.16L14.28-3.16Q14.28-4.76 14.73-6.37Q15.18-7.98 15.96-9.44Q16.74-10.89 17.74-12.01Q18.73-13.13 19.84-13.79Q20.94-14.45 22.04-14.45L22.04-14.45Q22.57-14.45 23.04-14.24Q23.52-14.03 23.83-13.58L23.83-13.58Q24.00-13.33 24.16-13.33L24.16-13.33Q24.33-13.33 24.50-13.58L24.50-13.58Q24.81-14.03 25.00-14.15Q25.20-14.28 25.37-14.28L25.37-14.28Q25.73-14.28 25.65-13.89L25.65-13.89L21.53 3.86Q21.39 4.48 21.55 4.69Q21.70 4.90 22.20 4.98L22.20 4.98L22.68 5.07Q23.18 5.15 23.18 5.40L23.18 5.40Q23.18 5.74 22.71 5.74L22.71 5.74ZM17.11-1.18L17.11-1.18Q17.78-1.18 18.59-1.99Q19.40-2.80 20.20-4.09Q21-5.38 21.67-6.86Q22.34-8.34 22.75-9.72Q23.16-11.09 23.16-12.04L23.16-12.04Q23.16-13.75 21.95-13.75L21.95-13.75Q21.22-13.75 20.41-13.09Q19.60-12.43 18.86-11.31Q18.12-10.19 17.51-8.78Q16.91-7.36 16.55-5.84Q16.18-4.31 16.18-2.86L16.18-2.86Q16.18-1.88 16.45-1.53Q16.72-1.18 17.11-1.18ZM29.04 0.25L29.04 0.25Q28.00 0.25 27.62-0.69Q27.24-1.62 27.66-3.16L27.66-3.16L29.88-11.28Q30.10-12.10 29.99-12.54Q29.88-12.99 29.48-12.99L29.48-12.99Q28.84-12.99 28.18-12.01Q27.52-11.03 27.05-9.30L27.05-9.30Q26.96-8.99 26.68-8.99L26.68-8.99Q26.29-8.99 26.43-9.55L26.43-9.55Q27.08-11.90 28.13-13.17Q29.18-14.45 30.44-14.45L30.44-14.45Q31.44-14.45 31.78-13.52Q32.12-12.60 31.67-11.00L31.67-11.00L29.43-2.88Q28.90-0.95 29.79-0.95L29.79-0.95Q30.35-0.95 31.08-1.71Q31.81-2.46 32.61-3.78Q33.40-5.10 34.19-6.78Q34.97-8.46 35.62-10.30Q36.26-12.15 36.68-13.97L36.68-13.97Q36.76-14.28 37.07-14.28L37.07-14.28L38.19-14.28Q38.58-14.28 38.50-13.92L38.50-13.92L35.87-2.66Q35.56-1.34 36.34-1.34L36.34-1.34Q37.52-1.34 38.81-4.90L38.81-4.90Q38.92-5.26 39.20-5.26L39.20-5.26Q39.37-5.26 39.44-5.12Q39.51-4.98 39.42-4.76L39.42-4.76Q38.67-2.38 37.63-1.06Q36.60 0.25 35.45 0.25L35.45 0.25Q33.43 0.25 34.10-2.69L34.10-2.69L34.83-5.80Q34.89-5.99 34.76-6.02Q34.64-6.05 34.55-5.88L34.55-5.88Q32.93-2.52 31.56-1.13Q30.18 0.25 29.04 0.25ZM45.75-16.94L45.75-16.94Q45.22-16.94 44.87-17.32Q44.52-17.70 44.52-18.23L44.52-18.23Q44.52-18.98 44.98-19.43Q45.44-19.88 46.03-19.88L46.03-19.88Q46.59-19.88 46.97-19.53Q47.35-19.18 47.35-18.62L47.35-18.62Q47.35-17.84 46.87-17.39Q46.40-16.94 45.75-16.94ZM43.46 0.28L43.46 0.28Q42.53 0.28 42.14-0.41Q41.75-1.09 42.11-2.66L42.11-2.66L44.18-11.54Q44.32-12.15 44.23-12.50Q44.13-12.85 43.71-12.85L43.71-12.85Q43.20-12.85 42.60-12.11Q42.00-11.37 41.24-9.30L41.24-9.30Q41.13-8.93 40.85-8.93L40.85-8.93Q40.43-8.93 40.63-9.44L40.63-9.44Q41.24-11.37 41.93-12.46Q42.62-13.55 43.32-14Q44.02-14.45 44.60-14.45L44.60-14.45Q45.58-14.45 45.98-13.76Q46.37-13.08 46.00-11.51L46.00-11.51L43.93-2.63Q43.79-2.02 43.89-1.67Q43.99-1.32 44.41-1.32L44.41-1.32Q44.91-1.32 45.51-2.06Q46.12-2.80 46.87-4.87L46.87-4.87Q46.98-5.24 47.26-5.24L47.26-5.24Q47.68-5.24 47.49-4.73L47.49-4.73Q46.90-2.83 46.19-1.72Q45.47-0.62 44.77-0.17Q44.07 0.28 43.46 0.28ZM57.01 0.25L57.01 0.25Q55.58 0.25 54.68-2.07L54.68-2.07L53.14-6.13Q52.86-6.80 52.44-6.80L52.44-6.80Q52.02-6.80 51.72-6.10L51.72-6.10Q51.44-5.49 51.11-4.44Q50.79-3.39 50.51-2.16L50.51-2.16L50.09-0.31Q50.01 0 49.70 0L49.70 0L48.61 0Q48.22 0 48.30-0.36L48.30-0.36L52.39-17.92Q52.50-18.40 52.39-18.61Q52.28-18.82 51.88-18.84L51.88-18.84L51.04-18.93Q50.62-18.98 50.68-19.29L50.68-19.29Q50.74-19.54 51.07-19.60L51.07-19.60Q52.28-19.80 53.00-20.05Q53.73-20.30 54.12-20.64L54.12-20.64Q54.35-20.80 54.52-20.80L54.52-20.80Q54.88-20.80 54.80-20.38L54.80-20.38L52.19-9.30Q52.16-9.10 52.28-9.07Q52.39-9.04 52.47-9.21L52.47-9.21L53.40-10.86Q55.41-14.45 57.93-14.45L57.93-14.45Q58.88-14.45 59.44-13.94Q60.00-13.44 60.00-12.57L60.00-12.57Q60.00-11.20 58.67-9.83Q57.34-8.46 55.19-7.59L55.19-7.59Q54.52-7.34 54.80-6.69L54.80-6.69L56.42-2.55Q56.70-1.85 56.98-1.55Q57.26-1.26 57.68-1.26L57.68-1.26Q58.32-1.26 58.66-2.06Q59.00-2.86 59.25-4.84L59.25-4.84Q59.30-5.21 59.58-5.21L59.58-5.21Q59.89-5.21 59.86-4.65L59.86-4.65Q59.72-2.30 58.98-1.02Q58.24 0.25 57.01 0.25ZM52.72-8.06L52.72-8.06Q52.61-7.81 52.71-7.69Q52.81-7.56 53.06-7.62L53.06-7.62Q55.38-8.20 56.81-9.55Q58.24-10.89 58.24-12.52L58.24-12.52Q58.24-13.58 57.43-13.58L57.43-13.58Q56.48-13.58 55.22-12.11Q53.96-10.64 52.72-8.06Z" fill="#f5f3f0" transform="translate(2.0,21.8)"/></svg>