<svg xmlns="http://www.w3.org/2000/svg" viewBox="0 0 54 28"><path d="M4.85 22L0.91 22Q0.67 22 0.58 21.90Q0.48 21.81 0.48 21.71L0.48 21.71Q0.48 21.47 0.84 21.40L0.84 21.40L1.22 21.33Q1.99 21.18 2.44 20.86Q2.88 20.54 3.19 19.82L3.19 19.82L5.59 14.10Q5.71 13.84 5.75 13.56Q5.78 13.29 5.64 12.98L5.64 12.98L2.64 6.33Q2.40 5.78 2.12 5.58Q1.85 5.39 1.54 5.34L1.54 5.34L1.08 5.27Q0.70 5.20 0.70 4.96L0.70 4.96Q0.70 4.72 1.10 4.72L1.10 4.72L5.33 4.72Q5.76 4.72 5.76 4.96L5.76 4.96Q5.76 5.20 5.35 5.27L5.35 5.27L4.90 5.34Q4.49 5.42 4.33 5.63Q4.18 5.85 4.39 6.33L4.39 6.33L6.67 11.44Q6.77 11.66 6.90 11.66Q7.03 11.66 7.13 11.44L7.13 11.44L9.19 6.57Q9.41 6.04 9.34 5.79Q9.26 5.54 8.86 5.44L8.86 5.44L8.18 5.30Q7.78 5.20 7.78 4.96L7.78 4.96Q7.78 4.72 8.21 4.72L8.21 4.72L11.88 4.72Q12.14 4.72 12.23 4.80Q12.31 4.89 12.31 5.01L12.31 5.01Q12.31 5.25 11.95 5.32L11.95 5.32L11.57 5.39Q10.97 5.49 10.56 5.84Q10.15 6.18 9.84 6.90L9.84 6.90L7.56 12.23Q7.44 12.54 7.43 12.83Q7.42 13.12 7.58 13.46L7.58 13.46L10.68 20.39Q10.94 20.97 11.22 21.14Q11.50 21.30 11.78 21.35L11.78 21.35L12.24 21.42Q12.65 21.50 12.65 21.76L12.65 21.76Q12.65 22 12.22 22L12.22 22L7.97 22Q7.54 22 7.54 21.71L7.54 21.71Q7.54 21.50 7.92 21.42L7.92 21.42L8.40 21.35Q8.81 21.30 8.98 21.08Q9.14 20.85 8.95 20.39L8.95 20.39L6.48 14.90Q6.38 14.68 6.25 14.68Q6.12 14.68 6.02 14.90L6.02 14.90L3.86 20.15Q3.65 20.68 3.72 20.93Q3.79 21.18 4.20 21.28L4.20 21.28L4.87 21.42Q5.28 21.52 5.28 21.76L5.28 21.76Q5.28 22 4.85 22L4.85 22Z" fill="#f5f3f0" stroke="#f5f3f0" stroke-width="0.5" paint-order="stroke"/><path d="M23.71 26.92L19.37 26.92Q19.01 26.92 19.01 26.63L19.01 26.63Q19.01 26.42 19.27 26.37L19.27 26.37L20.16 26.25Q20.66 26.18 20.82 26.00Q20.98 25.82 20.98 25.31L20.98 25.31L20.98 20.92Q20.98 20.73 20.81 20.67Q20.64 20.61 20.47 20.80L20.47 20.80Q19.87 21.59 19.34 21.90Q18.82 22.22 18.05 22.22L18.05 22.22Q16.99 22.22 16.16 21.48Q15.34 20.75 14.88 19.44Q14.42 18.14 14.42 16.41L14.42 16.41Q14.42 14.39 15.05 12.87Q15.67 11.34 16.78 10.48Q17.88 9.62 19.27 9.62L19.27 9.62Q19.75 9.62 20.17 9.76Q20.59 9.90 21.05 10.24L21.05 10.24Q21.58 10.60 22.01 10.05L22.01 10.05Q22.25 9.78 22.38 9.70Q22.51 9.62 22.61 9.62L22.61 9.62Q22.87 9.62 22.80 9.95L22.80 9.95Q22.70 10.48 22.66 11.36Q22.61 12.23 22.61 13.67L22.61 13.67L22.61 25.31Q22.61 25.82 22.76 26.03Q22.92 26.25 23.42 26.32L23.42 26.32L23.76 26.37Q24.07 26.39 24.07 26.66L24.07 26.66Q24.07 26.92 23.71 26.92L23.71 26.92ZM18.58 21.11L18.58 21.11Q19.20 21.11 19.74 20.69Q20.28 20.27 20.63 19.55Q20.98 18.83 20.98 17.94L20.98 17.94L20.98 12.54Q20.98 11.46 20.48 10.84Q19.99 10.22 19.20 10.22L19.20 10.22Q17.86 10.22 17.03 11.79Q16.20 13.36 16.20 16.07L16.20 16.07Q16.20 18.54 16.84 19.83Q17.47 21.11 18.58 21.11Z" fill="#f5f3f0" stroke="#f5f3f0" stroke-width="0.5" paint-order="stroke"/><path d="M29.02 22.22L29.02 22.22Q28.42 22.22 27.86 21.95Q27.31 21.69 26.95 21.11Q26.59 20.54 26.59 19.58L26.59 19.58L26.59 11.22Q26.59 10.79 26.46 10.62Q26.33 10.46 25.99 10.43L25.99 10.43L25.58 10.38Q25.18 10.34 25.18 10.07L25.18 10.07Q25.18 9.76 25.63 9.76L25.63 9.76L27.86 9.76Q28.22 9.76 28.22 10.12L28.22 10.12L28.22 19.07Q28.22 20.18 28.64 20.64Q29.06 21.11 29.81 21.11L29.81 21.11Q30.55 21.11 31.13 20.69Q31.70 20.27 32.05 19.56Q32.40 18.86 32.40 18.02L32.40 18.02L32.40 11.22Q32.40 10.79 32.27 10.62Q32.14 10.46 31.80 10.43L31.80 10.43L31.39 10.38Q30.98 10.34 30.98 10.07L30.98 10.07Q30.98 9.76 31.44 9.76L31.44 9.76L33.67 9.76Q34.03 9.76 34.03 10.12L34.03 10.12L34.03 19.43Q34.03 19.86 34.16 20.02Q34.30 20.18 34.63 20.22L34.63 20.22L35.14 20.30Q35.45 20.32 35.45 20.54L35.45 20.54Q35.45 20.75 35.06 20.82L35.06 20.82Q34.32 20.92 33.88 21.21Q33.43 21.50 33.10 21.90L33.10 21.90Q32.88 22.12 32.74 22.12L32.74 22.12Q32.52 22.12 32.52 21.83L32.52 21.83L32.52 20.73Q32.52 20.54 32.39 20.50Q32.26 20.46 32.11 20.61L32.11 20.61Q31.22 21.50 30.54 21.86Q29.86 22.22 29.02 22.22Z" fill="#f5f3f0" stroke="#f5f3f0" stroke-width="0.5" paint-order="stroke"/><path d="M39.14 7.48L39.14 7.48Q38.64 7.48 38.29 7.12Q37.94 6.76 37.94 6.21L37.94 6.21Q37.94 5.66 38.29 5.31Q38.64 4.96 39.14 4.96L39.14 4.96Q39.65 4.96 39.98 5.31Q40.32 5.66 40.32 6.21L40.32 6.21Q40.32 6.76 39.98 7.12Q39.65 7.48 39.14 7.48ZM41.14 22L37.13 22Q36.77 22 36.77 21.74L36.77 21.74Q36.77 21.52 37.08 21.45L37.08 21.45L37.37 21.40Q37.97 21.30 38.14 21.10Q38.30 20.90 38.30 20.39L38.30 20.39L38.30 12.33Q38.30 11.90 38.17 11.74Q38.04 11.58 37.70 11.54L37.70 11.54L37.20 11.46Q36.89 11.44 36.89 11.20L36.89 11.20Q36.89 11.01 37.27 10.94L37.27 10.94Q38.02 10.82 38.47 10.55Q38.93 10.29 39.36 9.90L39.36 9.90Q39.58 9.69 39.72 9.69L39.72 9.69Q39.94 9.69 39.94 9.98L39.94 9.98L39.94 20.39Q39.94 20.90 40.08 21.11Q40.22 21.33 40.63 21.38L40.63 21.38L41.23 21.45Q41.50 21.50 41.50 21.71L41.50 21.71Q41.50 22 41.14 22L41.14 22Z" fill="#f5f3f0" stroke="#f5f3f0" stroke-width="0.5" paint-order="stroke"/><path d="M47.21 22L43.01 22Q42.72 22 42.72 21.74L42.72 21.74Q42.72 21.50 42.98 21.45L42.98 21.45L43.32 21.40Q43.82 21.33 43.98 21.11Q44.14 20.90 44.14 20.39L44.14 20.39L44.14 6.64Q44.14 6.21 44.00 6.05Q43.87 5.90 43.54 5.85L43.54 5.85L43.03 5.78Q42.77 5.73 42.77 5.49L42.77 5.49Q42.77 5.25 43.03 5.20L43.03 5.20Q43.70 5.06 44.16 4.86Q44.62 4.67 44.93 4.48L44.93 4.48Q45.31 4.24 45.50 4.24L45.50 4.24Q45.77 4.24 45.77 4.62L45.77 4.62L45.77 14.68Q45.77 14.92 45.97 14.98Q46.18 15.04 46.37 14.82L46.37 14.82L49.18 11.80Q49.68 11.25 49.60 10.88Q49.51 10.50 49.03 10.41L49.03 10.41L48.48 10.31Q48.17 10.24 48.17 10L48.17 10Q48.17 9.76 48.50 9.76L48.50 9.76L52.63 9.76Q52.97 9.76 52.97 10.02L52.97 10.02Q52.97 10.29 52.66 10.31L52.66 10.31L52.44 10.34Q51.89 10.38 51.34 10.76Q50.78 11.13 50.02 11.92L50.02 11.92L48.53 13.50Q48.02 14.06 48.29 14.58L48.29 14.58L51.31 20.39Q51.58 20.87 51.89 21.09Q52.20 21.30 52.66 21.40L52.66 21.40L52.90 21.45Q53.18 21.52 53.18 21.74L53.18 21.74Q53.18 22 52.85 22L52.85 22L48.67 22Q48.34 22 48.34 21.74L48.34 21.74Q48.34 21.50 48.65 21.45L48.65 21.45L49.06 21.40Q49.97 21.28 49.44 20.22L49.44 20.22L47.16 15.78Q47.04 15.54 46.81 15.52Q46.58 15.50 46.39 15.69L46.39 15.69L46.13 15.95Q45.91 16.17 45.84 16.38Q45.77 16.60 45.77 16.86L45.77 16.86L45.77 20.39Q45.77 20.90 45.92 21.11Q46.08 21.33 46.58 21.38L46.58 21.38L47.23 21.45Q47.50 21.50 47.50 21.74L47.50 21.74Q47.50 22 47.21 22L47.21 22Z" fill="#f5f3f0" stroke="#f5f3f0" stroke-width="0.5" paint-order="stroke"/></svg>