<svg xmlns="http://www.w3.org/2000/svg" viewBox="0 0 69 34"><path d="M6.06 27L1.14 27Q0.84 27 0.72 26.88Q0.60 26.76 0.60 26.64L0.60 26.64Q0.60 26.34 1.05 26.25L1.05 26.25L1.53 26.16Q2.49 25.98 3.04 25.57Q3.60 25.17 3.99 24.27L3.99 24.27L6.99 17.13Q7.14 16.80 7.18 16.45Q7.23 16.11 7.05 15.72L7.05 15.72L3.30 7.41Q3 6.72 2.65 6.48Q2.31 6.24 1.92 6.18L1.92 6.18L1.35 6.09Q0.87 6 0.87 5.70L0.87 5.70Q0.87 5.40 1.38 5.40L1.38 5.40L6.66 5.40Q7.20 5.40 7.20 5.70L7.20 5.70Q7.20 6 6.69 6.09L6.69 6.09L6.12 6.18Q5.61 6.27 5.42 6.54Q5.22 6.81 5.49 7.41L5.49 7.41L8.34 13.80Q8.46 14.07 8.63 14.07Q8.79 14.07 8.91 13.80L8.91 13.80L11.49 7.71Q11.76 7.05 11.67 6.73Q11.58 6.42 11.07 6.30L11.07 6.30L10.23 6.12Q9.72 6 9.72 5.70L9.72 5.70Q9.72 5.40 10.26 5.40L10.26 5.40L14.85 5.40Q15.18 5.40 15.29 5.51Q15.39 5.61 15.39 5.76L15.39 5.76Q15.39 6.06 14.94 6.15L14.94 6.15L14.46 6.24Q13.71 6.36 13.20 6.80Q12.69 7.23 12.30 8.13L12.30 8.13L9.45 14.79Q9.30 15.18 9.29 15.54Q9.27 15.90 9.48 16.32L9.48 16.32L13.35 24.99Q13.68 25.71 14.03 25.92Q14.37 26.13 14.73 26.19L14.73 26.19L15.30 26.28Q15.81 26.37 15.81 26.70L15.81 26.70Q15.81 27 15.27 27L15.27 27L9.96 27Q9.42 27 9.42 26.64L9.42 26.64Q9.42 26.37 9.90 26.28L9.90 26.28L10.50 26.19Q11.01 26.13 11.22 25.84Q11.43 25.56 11.19 24.99L11.19 24.99L8.10 18.12Q7.98 17.85 7.81 17.85Q7.65 17.85 7.53 18.12L7.53 18.12L4.83 24.69Q4.56 25.35 4.65 25.66Q4.74 25.98 5.25 26.10L5.25 26.10L6.09 26.28Q6.60 26.40 6.60 26.70L6.60 26.70Q6.60 27 6.06 27L6.06 27Z" fill="#3b3836" stroke="#3b3836" stroke-width="1.2" paint-order="stroke"/><path d="M29.64 33.15L24.21 33.15Q23.76 33.15 23.76 32.79L23.76 32.79Q23.76 32.52 24.09 32.46L24.09 32.46L25.20 32.31Q25.83 32.22 26.02 32.00Q26.22 31.77 26.22 31.14L26.22 31.14L26.22 25.65Q26.22 25.41 26.01 25.34Q25.80 25.26 25.59 25.50L25.59 25.50Q24.84 26.49 24.18 26.88Q23.52 27.27 22.56 27.27L22.56 27.27Q21.24 27.27 20.20 26.36Q19.17 25.44 18.60 23.80Q18.03 22.17 18.03 20.01L18.03 20.01Q18.03 17.49 18.81 15.59Q19.59 13.68 20.97 12.60Q22.35 11.52 24.09 11.52L24.09 11.52Q24.69 11.52 25.21 11.70Q25.74 11.88 26.31 12.30L26.31 12.30Q26.97 12.75 27.51 12.06L27.51 12.06Q27.81 11.73 27.97 11.63Q28.14 11.52 28.26 11.52L28.26 11.52Q28.59 11.52 28.50 11.94L28.50 11.94Q28.38 12.60 28.32 13.70Q28.26 14.79 28.26 16.59L28.26 16.59L28.26 31.14Q28.26 31.77 28.45 32.04Q28.65 32.31 29.28 32.40L29.28 32.40L29.70 32.46Q30.09 32.49 30.09 32.82L30.09 32.82Q30.09 33.15 29.64 33.15L29.64 33.15ZM23.22 25.89L23.22 25.89Q24 25.89 24.67 25.36Q25.35 24.84 25.78 23.94Q26.22 23.04 26.22 21.93L26.22 21.93L26.22 15.18Q26.22 13.83 25.60 13.05Q24.99 12.27 24 12.27L24 12.27Q22.32 12.27 21.29 14.24Q20.25 16.20 20.25 19.59L20.25 19.59Q20.25 22.68 21.04 24.29Q21.84 25.89 23.22 25.89Z" fill="#3b3836" stroke="#3b3836" stroke-width="1.2" paint-order="stroke"/><path d="M36.27 27.27L36.27 27.27Q35.52 27.27 34.83 26.94Q34.14 26.61 33.69 25.89Q33.24 25.17 33.24 23.97L33.24 23.97L33.24 13.53Q33.24 12.99 33.08 12.78Q32.91 12.57 32.49 12.54L32.49 12.54L31.98 12.48Q31.47 12.42 31.47 12.09L31.47 12.09Q31.47 11.70 32.04 11.70L32.04 11.70L34.83 11.70Q35.28 11.70 35.28 12.15L35.28 12.15L35.28 23.34Q35.28 24.72 35.80 25.30Q36.33 25.89 37.26 25.89L37.26 25.89Q38.19 25.89 38.91 25.36Q39.63 24.84 40.06 23.95Q40.50 23.07 40.50 22.02L40.50 22.02L40.50 13.53Q40.50 12.99 40.34 12.78Q40.17 12.57 39.75 12.54L39.75 12.54L39.24 12.48Q38.73 12.42 38.73 12.09L38.73 12.09Q38.73 11.70 39.30 11.70L39.30 11.70L42.09 11.70Q42.54 11.70 42.54 12.15L42.54 12.15L42.54 23.79Q42.54 24.33 42.70 24.52Q42.87 24.72 43.29 24.78L43.29 24.78L43.92 24.87Q44.31 24.90 44.31 25.17L44.31 25.17Q44.31 25.44 43.83 25.53L43.83 25.53Q42.90 25.65 42.34 26.01Q41.79 26.37 41.37 26.88L41.37 26.88Q41.10 27.15 40.92 27.15L40.92 27.15Q40.65 27.15 40.65 26.79L40.65 26.79L40.65 25.41Q40.65 25.17 40.48 25.13Q40.32 25.08 40.14 25.26L40.14 25.26Q39.03 26.37 38.17 26.82Q37.32 27.27 36.27 27.27Z" fill="#3b3836" stroke="#3b3836" stroke-width="1.2" paint-order="stroke"/><path d="M48.93 8.85L48.93 8.85Q48.30 8.85 47.86 8.40Q47.43 7.95 47.43 7.26L47.43 7.26Q47.43 6.57 47.86 6.14Q48.30 5.70 48.93 5.70L48.93 5.70Q49.56 5.70 49.98 6.14Q50.40 6.57 50.40 7.26L50.40 7.26Q50.40 7.95 49.98 8.40Q49.56 8.85 48.93 8.85ZM51.42 27L46.41 27Q45.96 27 45.96 26.67L45.96 26.67Q45.96 26.40 46.35 26.31L46.35 26.31L46.71 26.25Q47.46 26.13 47.67 25.88Q47.88 25.62 47.88 24.99L47.88 24.99L47.88 14.91Q47.88 14.37 47.71 14.18Q47.55 13.98 47.13 13.92L47.13 13.92L46.50 13.83Q46.11 13.80 46.11 13.50L46.11 13.50Q46.11 13.26 46.59 13.17L46.59 13.17Q47.52 13.02 48.09 12.69Q48.66 12.36 49.20 11.88L49.20 11.88Q49.47 11.61 49.65 11.61L49.65 11.61Q49.92 11.61 49.92 11.97L49.92 11.97L49.92 24.99Q49.92 25.62 50.10 25.89Q50.28 26.16 50.79 26.22L50.79 26.22L51.54 26.31Q51.87 26.37 51.87 26.64L51.87 26.64Q51.87 27 51.42 27L51.42 27Z" fill="#3b3836" stroke="#3b3836" stroke-width="1.2" paint-order="stroke"/><path d="M59.01 27L53.76 27Q53.40 27 53.40 26.67L53.40 26.67Q53.40 26.37 53.73 26.31L53.73 26.31L54.15 26.25Q54.78 26.16 54.97 25.89Q55.17 25.62 55.17 24.99L55.17 24.99L55.17 7.80Q55.17 7.26 55.00 7.07Q54.84 6.87 54.42 6.81L54.42 6.81L53.79 6.72Q53.46 6.66 53.46 6.36L53.46 6.36Q53.46 6.06 53.79 6L53.79 6Q54.63 5.82 55.20 5.58Q55.77 5.34 56.16 5.10L56.16 5.10Q56.64 4.80 56.88 4.80L56.88 4.80Q57.21 4.80 57.21 5.28L57.21 5.28L57.21 17.85Q57.21 18.15 57.46 18.23Q57.72 18.30 57.96 18.03L57.96 18.03L61.47 14.25Q62.10 13.56 61.99 13.10Q61.89 12.63 61.29 12.51L61.29 12.51L60.60 12.39Q60.21 12.30 60.21 12L60.21 12Q60.21 11.70 60.63 11.70L60.63 11.70L65.79 11.70Q66.21 11.70 66.21 12.03L66.21 12.03Q66.21 12.36 65.82 12.39L65.82 12.39L65.55 12.42Q64.86 12.48 64.17 12.95Q63.48 13.41 62.52 14.40L62.52 14.40L60.66 16.38Q60.03 17.07 60.36 17.73L60.36 17.73L64.14 24.99Q64.47 25.59 64.86 25.86Q65.25 26.13 65.82 26.25L65.82 26.25L66.12 26.31Q66.48 26.40 66.48 26.67L66.48 26.67Q66.48 27 66.06 27L66.06 27L60.84 27Q60.42 27 60.42 26.67L60.42 26.67Q60.42 26.37 60.81 26.31L60.81 26.31L61.32 26.25Q62.46 26.10 61.80 24.78L61.80 24.78L58.95 19.23Q58.80 18.93 58.51 18.90Q58.23 18.87 57.99 19.11L57.99 19.11L57.66 19.44Q57.39 19.71 57.30 19.98Q57.21 20.25 57.21 20.58L57.21 20.58L57.21 24.99Q57.21 25.62 57.40 25.89Q57.60 26.16 58.23 26.22L58.23 26.22L59.04 26.31Q59.37 26.37 59.37 26.67L59.37 26.67Q59.37 27 59.01 27L59.01 27Z" fill="#3b3836" stroke="#3b3836" stroke-width="1.2" paint-order="stroke"/></svg>